<?xml version="1.0" encoding="UTF-8"?>
<svg id="Layer_1" data-name="Layer 1" xmlns="http://www.w3.org/2000/svg" viewBox="0 0 16.68 19.01">
  <defs>
    <style>
      .cls-1 {
        fill: #fff;
      }
    </style>
  </defs>
  <g>
    <path d="M8.43,16.92c4.43-3.93,4.57-10.78.26-14.84-.09-.09-.03-.38.07-.45.15-.11.35-.09.48.04,4.48,4.31,4.34,11.49-.25,15.67-.09.08-.29.12-.43.06-.11-.05-.17-.3-.13-.47Z"/>
    <path d="M5.85,14.69c3.37-2.6,3.51-7.57.31-10.36-.1-.09-.09-.35,0-.46.08-.09.33-.15.43-.06,3.51,3.05,3.38,8.55-.31,11.39-.13.1-.33.1-.44.02-.15-.12-.2-.38,0-.52Z"/>
    <path d="M1.79,11.17c-.99,0-1.79-.8-1.79-1.79s.8-1.79,1.79-1.79,1.79.8,1.79,1.79-.8,1.79-1.79,1.79ZM1.8,10.49c.61,0,1.11-.5,1.11-1.11s-.5-1.11-1.11-1.11-1.11.5-1.11,1.11.5,1.11,1.11,1.11Z"/>
    <path d="M4.11,12.27c.9-.71,1.39-1.78,1.39-2.9s-.52-2.21-1.44-2.92c-.16-.12-.21-.34-.12-.48.12-.18.35-.21.53-.08,1.08.84,1.69,2.09,1.7,3.41s-.56,2.65-1.67,3.51c-.13.1-.38.06-.47-.06-.1-.13-.09-.36.06-.49Z"/>
    <circle class="cls-1" cx="1.8" cy="9.38" r="1.11"/>
  </g>
  <rect x="14.78" width="1.9" height="19.01"/>
</svg>